<?xml version="1.0" standalone="no"?>
<!DOCTYPE svg PUBLIC "-//W3C//DTD SVG 20010904//EN"
 "http://www.w3.org/TR/2001/REC-SVG-20010904/DTD/svg10.dtd">
<svg version="1.0" xmlns="http://www.w3.org/2000/svg"
 width="700.000000pt" height="700.000000pt" viewBox="0 0 700.000000 700.000000"
 preserveAspectRatio="xMidYMid meet">
<metadata>
Created by potrace 1.14, written by Peter Selinger 2001-2017
</metadata>
<g transform="translate(0.000000,700.000000) scale(0.100000,-0.100000)"
fill="#000000" stroke="none">
<path d="M3160 6984 c-147 -15 -197 -22 -290 -40 -41 -8 -88 -18 -105 -20
-273 -47 -704 -214 -1020 -397 -103 -60 -289 -180 -305 -197 -3 -3 -41 -32
-84 -65 -267 -201 -561 -515 -756 -805 -146 -218 -288 -488 -364 -695 -21 -55
-41 -109 -46 -120 -47 -109 -139 -493 -156 -648 -3 -29 -7 -58 -10 -66 -22
-68 -25 -716 -3 -836 4 -22 10 -65 13 -95 10 -80 53 -288 86 -416 119 -448
366 -932 656 -1284 267 -323 557 -577 904 -792 69 -42 298 -168 307 -168 2 0
34 -14 70 -31 289 -135 651 -237 1008 -285 252 -33 854 -21 1005 21 8 2 35 7
60 10 24 4 47 8 50 10 3 2 21 6 40 9 88 14 275 64 420 113 170 58 485 198 509
226 7 9 -35 72 -140 212 -83 110 -157 209 -165 220 -8 11 -53 72 -100 135 -47
63 -120 162 -162 220 -42 58 -79 107 -82 110 -5 5 -39 51 -171 230 -46 63 -89
122 -96 130 -49 61 -210 286 -305 426 -155 228 -321 474 -461 682 -65 94 -170
250 -234 345 -64 94 -177 262 -252 372 -199 295 -332 488 -346 504 -11 11 -14
-53 -15 -365 -6 -1614 -7 -1660 -21 -1689 -27 -57 -61 -70 -197 -73 -110 -3
-125 -1 -151 17 -67 48 -62 -74 -61 1447 0 1540 -7 1403 72 1442 32 16 57 19
165 17 85 -1 138 -6 156 -15 21 -10 94 -112 255 -354 125 -188 229 -345 231
-351 2 -5 16 -26 31 -45 15 -19 29 -39 31 -45 2 -5 74 -116 160 -245 163 -246
467 -705 724 -1095 83 -126 232 -351 330 -500 98 -148 242 -367 320 -485 78
-118 244 -370 370 -560 125 -190 257 -389 292 -442 34 -54 67 -98 71 -98 10 0
68 39 162 108 680 502 1154 1213 1345 2017 18 77 36 160 40 185 4 25 9 54 11
65 29 153 37 272 37 555 0 366 -19 539 -94 850 -30 122 -123 415 -139 435 -4
6 -11 21 -15 35 -23 81 -175 383 -265 526 -118 188 -268 386 -400 528 -79 85
-253 252 -320 307 -36 30 -67 57 -70 60 -3 4 -57 44 -121 91 -238 174 -447
291 -756 425 -196 85 -587 189 -818 219 -16 2 -61 8 -100 13 -135 18 -581 21
-735 5z m1555 -2114 c63 -39 59 41 60 -1307 0 -678 -2 -1233 -5 -1233 -5 1
-24 28 -122 180 -31 47 -113 172 -182 279 l-128 194 4 906 c4 973 2 936 56
976 50 37 260 40 317 5z"/>
<path d="M5360 540 c-9 -6 -10 -10 -3 -10 6 0 15 5 18 10 8 12 4 12 -15 0z"/>
<path d="M5190 440 c-9 -6 -10 -10 -3 -10 6 0 15 5 18 10 8 12 4 12 -15 0z"/>
</g>
</svg>
